<svg width="1164" height="501" viewBox="0 0 1164 501" fill="none" xmlns="http://www.w3.org/2000/svg">
<path d="M373.507 270.117V135.812H407.415V270.117H373.507ZM400.406 270.117V241.513H473.147V270.117H400.406ZM400.406 215.562V187.716H466.327V215.562H400.406ZM400.406 164.416V135.812H472.01V164.416H400.406ZM528.27 272.011C519.683 272.011 512.043 269.928 505.349 265.76C498.656 261.593 493.415 255.91 489.627 248.712C485.838 241.387 483.944 233.115 483.944 223.897C483.944 214.552 485.838 206.217 489.627 198.892C493.415 191.568 498.656 185.885 505.349 181.844C512.043 177.676 519.683 175.592 528.27 175.592C534.079 175.592 539.383 176.666 544.182 178.813C548.981 180.833 552.896 183.738 555.927 187.526C559.084 191.315 560.978 195.609 561.61 200.408V247.007C560.978 251.932 559.084 256.289 555.927 260.077C552.896 263.74 548.981 266.644 544.182 268.791C539.383 270.938 534.079 272.011 528.27 272.011ZM535.279 242.65C540.709 242.65 545.066 240.882 548.35 237.346C551.759 233.81 553.464 229.264 553.464 223.707C553.464 220.045 552.707 216.825 551.191 214.046C549.676 211.268 547.529 209.058 544.751 207.416C542.099 205.775 539.005 204.954 535.469 204.954C531.933 204.954 528.775 205.775 525.997 207.416C523.345 209.058 521.198 211.331 519.557 214.236C518.041 217.014 517.283 220.171 517.283 223.707C517.283 227.369 518.041 230.653 519.557 233.557C521.072 236.336 523.219 238.546 525.997 240.187C528.775 241.829 531.869 242.65 535.279 242.65ZM552.138 309.329V245.681L556.874 223.139L552.138 200.786V177.487H584.531V309.329H552.138ZM646.197 272.201C637.483 272.201 629.717 270.496 622.897 267.086C616.204 263.55 610.9 258.688 606.985 252.5C603.197 246.186 601.302 239.051 601.302 231.095V177.487H634.263V231.095C634.263 233.621 634.768 235.831 635.778 237.725C636.789 239.619 638.178 241.071 639.946 242.082C641.714 243.092 643.797 243.597 646.197 243.597C649.733 243.597 652.574 242.461 654.721 240.187C656.994 237.914 658.131 234.883 658.131 231.095V177.487H691.091V231.095C691.091 239.177 689.197 246.312 685.409 252.5C681.62 258.688 676.316 263.55 669.497 267.086C662.803 270.496 655.037 272.201 646.197 272.201ZM746.557 272.011C737.97 272.011 730.329 269.928 723.636 265.76C716.943 261.593 711.702 255.91 707.914 248.712C704.125 241.387 702.231 233.115 702.231 223.897C702.231 214.552 704.125 206.217 707.914 198.892C711.702 191.568 716.943 185.885 723.636 181.844C730.329 177.676 737.97 175.592 746.557 175.592C752.366 175.592 757.67 176.666 762.469 178.813C767.268 180.833 771.183 183.738 774.214 187.526C777.371 191.315 779.265 195.609 779.896 200.408V247.007C779.265 251.932 777.371 256.289 774.214 260.077C771.183 263.74 767.268 266.644 762.469 268.791C757.67 270.938 752.366 272.011 746.557 272.011ZM753.566 242.65C758.996 242.65 763.353 240.882 766.636 237.346C770.046 233.81 771.751 229.264 771.751 223.707C771.751 220.045 770.993 216.825 769.478 214.046C767.962 211.268 765.816 209.058 763.037 207.416C760.385 205.775 757.291 204.954 753.755 204.954C750.219 204.954 747.062 205.775 744.284 207.416C741.632 209.058 739.485 211.331 737.843 214.236C736.328 217.014 735.57 220.171 735.57 223.707C735.57 227.369 736.328 230.653 737.843 233.557C739.359 236.336 741.506 238.546 744.284 240.187C747.062 241.829 750.156 242.65 753.566 242.65ZM770.425 270.117V245.302L775.161 222.571L770.425 200.218V177.487H802.817V270.117H770.425ZM834.743 270.117V139.222H867.704V270.117H834.743ZM814.285 204.954V177.487H888.162V204.954H814.285ZM899.557 270.117V177.487H932.707V270.117H899.557ZM916.038 166.689C911.113 166.689 907.008 165.048 903.725 161.764C900.441 158.354 898.8 154.124 898.8 149.072C898.8 144.147 900.441 139.98 903.725 136.57C907.008 133.16 911.113 131.456 916.038 131.456C921.215 131.456 925.383 133.16 928.54 136.57C931.823 139.98 933.465 144.147 933.465 149.072C933.465 154.124 931.823 158.354 928.54 161.764C925.383 165.048 921.215 166.689 916.038 166.689ZM997.566 272.201C987.589 272.201 978.686 270.117 970.857 265.95C963.153 261.656 957.028 255.847 952.482 248.522C947.936 241.071 945.663 232.737 945.663 223.518C945.663 214.299 947.873 206.09 952.293 198.892C956.839 191.568 963.027 185.822 970.857 181.654C978.686 177.36 987.526 175.214 997.377 175.214C1007.23 175.214 1016 177.36 1023.71 181.654C1031.54 185.822 1037.72 191.568 1042.27 198.892C1046.82 206.09 1049.09 214.299 1049.09 223.518C1049.09 232.737 1046.82 241.071 1042.27 248.522C1037.85 255.847 1031.73 261.656 1023.9 265.95C1016.19 270.117 1007.42 272.201 997.566 272.201ZM997.377 242.839C1001.04 242.839 1004.2 242.082 1006.85 240.566C1009.63 238.925 1011.77 236.651 1013.29 233.747C1014.8 230.842 1015.56 227.496 1015.56 223.707C1015.56 219.919 1014.74 216.635 1013.1 213.857C1011.58 210.952 1009.5 208.742 1006.85 207.227C1004.2 205.585 1001.04 204.764 997.377 204.764C993.841 204.764 990.683 205.585 987.905 207.227C985.127 208.869 982.98 211.142 981.465 214.046C979.949 216.825 979.191 220.108 979.191 223.897C979.191 227.559 979.949 230.842 981.465 233.747C982.98 236.651 985.127 238.925 987.905 240.566C990.683 242.082 993.841 242.839 997.377 242.839ZM1122.22 270.117V217.835C1122.22 213.541 1120.95 210.195 1118.43 207.795C1115.9 205.27 1112.68 204.007 1108.77 204.007C1106.11 204.007 1103.71 204.575 1101.57 205.712C1099.55 206.848 1097.97 208.427 1096.83 210.447C1095.7 212.468 1095.13 214.93 1095.13 217.835L1082.25 211.773C1082.25 204.322 1083.89 197.945 1087.17 192.641C1090.46 187.211 1094.94 183.043 1100.62 180.139C1106.43 177.108 1113 175.592 1120.32 175.592C1127.01 175.592 1132.95 177.171 1138.13 180.328C1143.43 183.359 1147.6 187.463 1150.63 192.641C1153.66 197.819 1155.18 203.691 1155.18 210.258V270.117H1122.22ZM1062.17 270.117V177.487H1095.13V270.117H1062.17Z" fill="#252525"/>
<path d="M400.406 444.791V419.597H428.441C433.745 419.597 437.913 418.145 440.944 415.24C444.101 412.209 445.679 408.294 445.679 403.496C445.679 400.338 444.985 397.56 443.596 395.161C442.207 392.635 440.186 390.741 437.534 389.478C435.008 388.089 431.977 387.394 428.441 387.394H400.406V362.958H426.358C430.778 362.958 434.377 361.884 437.155 359.738C440.06 357.464 441.512 353.992 441.512 349.319C441.512 344.646 440.06 341.237 437.155 339.09C434.377 336.817 430.778 335.68 426.358 335.68H400.406V310.486H434.503C442.838 310.486 450.036 312.065 456.098 315.222C462.286 318.379 467.022 322.61 470.305 327.914C473.589 333.218 475.23 339.216 475.23 345.909C475.23 354.876 472.136 362.326 465.948 368.262C459.887 374.071 451.047 377.67 439.428 379.059V367.694C452.309 369.209 462.16 373.376 468.979 380.196C475.799 386.889 479.208 395.35 479.208 405.579C479.208 413.156 477.314 419.913 473.525 425.848C469.737 431.657 464.37 436.267 457.424 439.676C450.605 443.086 442.522 444.791 433.177 444.791H400.406ZM373.507 444.791V310.486H406.847V444.791H373.507ZM533.08 446.685C524.493 446.685 516.852 444.602 510.159 440.434C503.466 436.267 498.225 430.584 494.437 423.386C490.648 416.061 488.754 407.789 488.754 398.57C488.754 389.225 490.648 380.89 494.437 373.566C498.225 366.241 503.466 360.558 510.159 356.517C516.852 352.35 524.493 350.266 533.08 350.266C538.889 350.266 544.193 351.34 548.992 353.486C553.791 355.507 557.706 358.412 560.737 362.2C563.894 365.989 565.788 370.282 566.419 375.081V421.681C565.788 426.606 563.894 430.963 560.737 434.751C557.706 438.414 553.791 441.318 548.992 443.465C544.193 445.612 538.889 446.685 533.08 446.685ZM540.089 417.324C545.519 417.324 549.876 415.556 553.159 412.02C556.569 408.484 558.274 403.938 558.274 398.381C558.274 394.719 557.516 391.498 556.001 388.72C554.485 385.942 552.339 383.732 549.56 382.09C546.908 380.448 543.814 379.628 540.278 379.628C536.742 379.628 533.585 380.448 530.807 382.09C528.155 383.732 526.008 386.005 524.366 388.91C522.851 391.688 522.093 394.845 522.093 398.381C522.093 402.043 522.851 405.327 524.366 408.231C525.882 411.01 528.029 413.22 530.807 414.861C533.585 416.503 536.679 417.324 540.089 417.324ZM556.948 444.791V419.976L561.684 397.244L556.948 374.892V352.16H589.34V444.791H556.948ZM608.575 444.791V306.698H641.535V444.791H608.575ZM699.57 446.685C690.982 446.685 683.342 444.602 676.649 440.434C669.956 436.267 664.715 430.584 660.926 423.386C657.138 416.061 655.244 407.789 655.244 398.57C655.244 389.225 657.138 380.89 660.926 373.566C664.715 366.241 669.956 360.558 676.649 356.517C683.342 352.35 690.982 350.266 699.57 350.266C705.379 350.266 710.683 351.34 715.482 353.486C720.281 355.507 724.196 358.412 727.226 362.2C730.384 365.989 732.278 370.282 732.909 375.081V421.681C732.278 426.606 730.384 430.963 727.226 434.751C724.196 438.414 720.281 441.318 715.482 443.465C710.683 445.612 705.379 446.685 699.57 446.685ZM706.579 417.324C712.009 417.324 716.366 415.556 719.649 412.02C723.059 408.484 724.764 403.938 724.764 398.381C724.764 394.719 724.006 391.498 722.491 388.72C720.975 385.942 718.828 383.732 716.05 382.09C713.398 380.448 710.304 379.628 706.768 379.628C703.232 379.628 700.075 380.448 697.297 382.09C694.645 383.732 692.498 386.005 690.856 388.91C689.341 391.688 688.583 394.845 688.583 398.381C688.583 402.043 689.341 405.327 690.856 408.231C692.372 411.01 694.518 413.22 697.297 414.861C700.075 416.503 703.169 417.324 706.579 417.324ZM723.438 444.791V419.976L728.174 397.244L723.438 374.892V352.16H755.83V444.791H723.438ZM835.113 444.791V392.509C835.113 388.215 833.85 384.868 831.325 382.469C828.799 379.943 825.579 378.68 821.664 378.68C819.012 378.68 816.612 379.249 814.466 380.385C812.445 381.522 810.866 383.1 809.73 385.121C808.593 387.142 808.025 389.604 808.025 392.509L795.144 386.447C795.144 378.996 796.786 372.619 800.069 367.315C803.352 361.884 807.836 357.717 813.518 354.812C819.328 351.782 825.894 350.266 833.219 350.266C839.912 350.266 845.848 351.845 851.025 355.002C856.329 358.033 860.497 362.137 863.528 367.315C866.558 372.492 868.074 378.365 868.074 384.932V444.791H835.113ZM775.065 444.791V352.16H808.025V444.791H775.065ZM931.344 446.875C921.494 446.875 912.591 444.791 904.635 440.624C896.805 436.456 890.617 430.71 886.071 423.386C881.525 416.061 879.252 407.789 879.252 398.57C879.252 389.225 881.525 380.89 886.071 373.566C890.744 366.241 896.995 360.495 904.824 356.328C912.78 352.034 921.747 349.887 931.723 349.887C938.922 349.887 945.488 351.087 951.424 353.486C957.359 355.886 962.79 359.485 967.715 364.284L946.878 385.121C944.983 383.227 942.773 381.838 940.248 380.954C937.848 379.943 935.007 379.438 931.723 379.438C928.187 379.438 924.967 380.259 922.062 381.901C919.284 383.416 917.011 385.563 915.243 388.341C913.601 391.12 912.78 394.466 912.78 398.381C912.78 402.17 913.601 405.516 915.243 408.421C917.011 411.199 919.284 413.409 922.062 415.051C924.967 416.692 928.187 417.513 931.723 417.513C935.259 417.513 938.29 416.945 940.816 415.808C943.342 414.672 945.552 413.03 947.446 410.883L968.472 431.72C963.295 436.772 957.675 440.56 951.613 443.086C945.678 445.612 938.922 446.875 931.344 446.875ZM1024.79 446.875C1014.43 446.875 1005.27 444.854 997.319 440.813C989.363 436.646 983.112 430.9 978.565 423.575C974.019 416.25 971.746 407.852 971.746 398.381C971.746 389.036 973.956 380.764 978.376 373.566C982.796 366.241 988.795 360.495 996.372 356.328C1004.08 352.034 1012.73 349.887 1022.32 349.887C1031.67 349.887 1039.94 351.908 1047.14 355.949C1054.46 359.864 1060.15 365.357 1064.19 372.429C1068.35 379.375 1070.44 387.331 1070.44 396.297C1070.44 398.192 1070.31 400.149 1070.06 402.17C1069.93 404.064 1069.55 406.274 1068.92 408.8L987.279 409.178V387.962L1055.85 387.394L1041.08 396.676C1040.95 391.498 1040.19 387.268 1038.8 383.984C1037.41 380.575 1035.39 377.986 1032.74 376.218C1030.09 374.45 1026.74 373.566 1022.7 373.566C1018.53 373.566 1014.94 374.576 1011.9 376.597C1008.87 378.617 1006.54 381.459 1004.9 385.121C1003.25 388.783 1002.43 393.203 1002.43 398.381C1002.43 403.685 1003.32 408.231 1005.09 412.02C1006.85 415.682 1009.38 418.46 1012.66 420.355C1015.95 422.249 1019.99 423.196 1024.79 423.196C1029.33 423.196 1033.31 422.438 1036.72 420.923C1040.26 419.408 1043.41 417.071 1046.19 413.914L1063.43 431.152C1058.88 436.33 1053.33 440.245 1046.76 442.897C1040.32 445.549 1032.99 446.875 1024.79 446.875ZM1082.89 444.791V352.16H1115.85V444.791H1082.89ZM1115.85 394.403L1101.07 381.901C1104.73 371.419 1109.6 363.526 1115.66 358.222C1121.72 352.918 1129.61 350.266 1139.34 350.266C1143.76 350.266 1147.54 350.834 1150.7 351.971C1153.98 353.108 1156.76 354.876 1159.04 357.275L1139.9 382.848C1138.89 381.711 1137.44 380.827 1135.55 380.196C1133.78 379.438 1131.76 379.059 1129.49 379.059C1125.19 379.059 1121.84 380.385 1119.45 383.037C1117.05 385.563 1115.85 389.352 1115.85 394.403Z" fill="#252525"/>
<path d="M222.146 168.046C222.1 167.985 222.069 167.935 222.051 167.903C221.979 167.783 221.939 167.679 221.919 167.624C221.855 167.443 221.836 167.28 221.834 167.264C221.82 167.163 221.813 167.054 221.809 166.971C221.798 166.786 221.79 166.52 221.783 166.188C221.769 165.517 221.758 164.506 221.751 163.163C221.72 157.791 221.743 146.988 221.817 130.98C221.813 130.397 221.957 129.672 222.521 129.1C223.088 128.525 223.816 128.374 224.399 128.37L224.407 128.37L242.639 128.343L242.643 128.343C243.663 128.344 244.644 127.94 245.369 127.22C246.092 126.501 246.501 125.524 246.508 124.5C246.508 124.5 246.508 124.5 246.508 124.5L246.581 108.603C246.581 108.602 246.581 108.602 246.581 108.602C246.585 107.488 246.152 106.418 245.372 105.622C244.591 104.825 243.525 104.364 242.406 104.341C232.471 104.16 222.403 104.14 212.212 104.28L212.209 104.28C207.77 104.333 204.113 104.801 201.585 106.288C200.362 107.008 199.403 107.969 198.736 109.274C198.062 110.595 197.644 112.353 197.645 114.719V114.719C197.65 134.536 197.641 149.146 197.618 158.33C197.606 162.921 197.591 166.161 197.572 168.018C197.562 168.932 197.552 169.547 197.539 169.815C197.538 169.822 197.534 169.978 197.505 170.133C197.629 189.774 204.902 204.804 219.27 215.432C224.334 219.173 230.395 222.596 236.829 226.077C238.034 226.73 239.252 227.384 240.478 228.042C245.766 230.882 251.2 233.801 256.35 236.964C269.013 244.74 280.388 254.237 284.143 268.433L284.144 268.434C284.73 270.657 285.152 274.471 285.445 279.75C285.742 285.071 285.913 292.001 285.96 300.531C286.077 320.33 286.074 340.124 285.947 359.915V359.916C285.937 361.49 285.931 363.034 285.926 364.547C285.89 375.503 285.859 384.89 283.701 392.996C281.198 402.399 275.858 410.065 264.742 416.803C252.184 424.43 224.801 440.246 182.614 464.242C170.91 470.906 161.27 473.156 151.6 471.981C142.013 470.816 132.581 466.299 121.287 459.859L121.287 459.859C101.986 448.848 82.7335 437.736 63.5292 426.523C62.7943 426.094 62.0682 425.671 61.351 425.254C50.7114 419.057 42.0444 414.009 35.9856 407.415C29.3976 400.244 25.9495 391.34 25.8625 377.487C25.6604 345.65 25.7797 313.799 26.2202 281.937C26.4567 264.954 33.0223 254.28 42.7076 246.03C47.5073 241.942 53.0569 238.461 58.9101 235.098C61.3156 233.716 63.749 232.366 66.2078 231.002C69.7991 229.01 73.4444 226.988 77.1353 224.791L77.1357 224.791C88.7043 217.911 96.2224 212.556 99.8745 208.707L99.8756 208.706C109.191 198.907 113.895 186.704 113.949 171.984L114.022 171.983C114.024 171.877 114.025 171.761 114.027 171.633C114.047 170.137 114.059 167.254 114.066 163.003C114.078 154.506 114.064 140.576 114.023 121.429M222.146 168.046L115.604 121.426M222.146 168.046C222.514 175.174 223.608 181.02 226.122 186.088C229.257 192.405 234.499 197.32 242.782 202.057M222.146 168.046L242.782 202.057M114.023 121.429L115.604 121.426M114.023 121.429C114.023 121.43 114.023 121.431 114.023 121.431L115.604 121.426M114.023 121.429C114.012 118.049 113.944 115.308 113.627 113.06C113.311 110.816 112.764 109.211 111.899 108.026C110.226 105.733 106.884 104.405 99.2032 104.276M115.604 121.426C115.557 107.923 114.636 102.955 99.2296 102.696C89.2033 102.529 79.1792 102.575 69.1576 102.834M99.2032 104.276L99.2293 102.714L99.203 104.276M99.2032 104.276C99.2031 104.276 99.2031 104.276 99.203 104.276M99.2032 104.276C99.2031 104.276 99.2031 104.276 99.203 104.276M99.203 104.276C89.1995 104.11 79.1982 104.156 69.1995 104.414M69.1995 104.414C69.1998 104.414 69.2001 104.414 69.2004 104.414L69.1576 102.834M69.1995 104.414C68.2166 104.441 67.2775 104.834 66.5656 105.518M69.1995 104.414C69.1992 104.414 69.1988 104.414 69.1985 104.414L69.1576 102.834M69.1576 102.834L66.5656 105.518M66.5656 105.518C66.5656 105.518 66.5657 105.518 66.5657 105.518L65.482 104.391L66.5656 105.518ZM66.5656 105.518C65.8535 106.203 65.4205 107.13 65.3519 108.119L65.3518 108.119C65.021 112.854 64.9446 118.057 65.1253 123.729L65.1255 123.736C65.1786 125.654 65.6961 126.776 66.4024 127.424C67.1142 128.078 68.3052 128.515 70.2743 128.436M66.5656 105.518L63.7749 108.009C63.4398 112.806 63.3633 118.063 63.5454 123.779C63.6652 128.113 65.9295 130.192 70.3375 130.015M70.2743 128.436C70.2741 128.436 70.2739 128.436 70.2737 128.436L70.3375 130.015M70.2743 128.436L70.3375 130.015M70.2743 128.436C73.7899 128.294 77.3668 128.311 80.8707 128.328C82.934 128.337 84.9719 128.347 86.9571 128.324L86.961 128.324C87.3418 128.321 87.7198 128.392 88.0729 128.536L88.0764 128.537C88.4286 128.681 88.749 128.892 89.0191 129.16L89.022 129.163C89.2912 129.43 89.5064 129.75 89.6531 130.104L89.6535 130.105C89.7986 130.455 89.8738 130.832 89.8729 131.214C89.9029 144.738 89.9371 154.257 89.9756 159.629L90.1438 159.629C90.2064 174.154 88.4691 190.131 73.9773 198.668L73.977 198.668C58.875 207.561 43.7512 216.44 28.6059 225.305L28.6055 225.305C16.5306 232.368 8.61781 241.779 4.73722 253.537L4.73651 253.54C2.97038 258.866 2.00128 268.973 1.93609 284.08C1.71162 336.31 1.72626 372.009 1.9796 391.183L0.399002 391.204L1.9796 391.183C2.21865 409.438 10.142 423.059 25.853 432.234C59.2817 451.751 92.7893 471.119 126.376 490.332L126.376 490.332C140.215 498.252 153.921 500.662 167.563 497.69C172.828 496.543 180.452 493.154 190.513 487.386L190.513 487.386C222.303 469.18 254.064 450.902 285.797 432.554C301.382 423.531 309.27 410.489 309.646 393.285C310.035 375.302 310.092 339.147 309.823 284.807C309.734 269.601 308.753 259.394 306.977 253.976M70.3375 130.015C73.8267 129.874 77.3284 129.891 80.8005 129.908C82.8723 129.918 84.9335 129.928 86.9754 129.905C87.148 129.903 87.3194 129.936 87.4794 130.001L308.479 253.483M306.977 253.976L308.479 253.483M306.977 253.976C306.977 253.976 306.977 253.976 306.977 253.976L308.479 253.483M306.977 253.976C303.03 241.939 294.986 232.349 282.717 225.201L282.717 225.2C264.805 214.759 251.493 207.045 242.782 202.057M308.479 253.483C304.398 241.038 296.077 231.155 283.513 223.835C265.6 213.393 252.284 205.677 243.568 200.686L242.783 202.058C242.783 202.058 242.783 202.058 242.782 202.057M195.972 169.351C195.977 169.095 195.983 168.739 195.988 168.285C196.332 168.337 196.8 168.522 196.985 168.658C197.298 168.93 197.413 169.254 197.427 169.295L197.429 169.298C197.433 169.31 197.437 169.322 197.441 169.333L195.972 169.351ZM115.273 171.325C115.368 171.317 115.486 171.321 115.612 171.335C115.609 171.573 115.606 171.783 115.603 171.966L114.27 171.981C114.317 171.912 114.375 171.839 114.445 171.768C114.592 171.636 115.005 171.402 115.273 171.325Z" fill="#252525" stroke="#252525" stroke-width="3.16147"/>
<path d="M190.696 54.2449C205.538 54.2449 217.567 42.2137 217.567 27.3725C217.567 12.5312 205.538 0.5 190.696 0.5C175.855 0.5 163.823 12.5312 163.823 27.3725C163.823 42.2137 175.855 54.2449 190.696 54.2449Z" fill="#5ECA29"/>
<path d="M126.725 76.0834C132.838 76.0834 137.793 71.1294 137.793 65.0183C137.793 58.9071 132.838 53.9531 126.725 53.9531C120.613 53.9531 115.657 58.9071 115.657 65.0183C115.657 71.1294 120.613 76.0834 126.725 76.0834Z" fill="#5ECA29"/>
<path d="M174.143 104.831C182.873 104.831 189.951 97.7542 189.951 89.0241C189.951 80.2941 182.873 73.2168 174.143 73.2168C165.413 73.2168 158.336 80.2941 158.336 89.0241C158.336 97.7542 165.413 104.831 174.143 104.831Z" fill="#5ECA29"/>
<path d="M139.368 130.119C144.606 130.119 148.853 125.873 148.853 120.635C148.853 115.397 144.606 111.15 139.368 111.15C134.13 111.15 129.884 115.397 129.884 120.635C129.884 125.873 134.13 130.119 139.368 130.119Z" fill="#5ECA29"/>
<path d="M163.079 174.385C170.936 174.385 177.306 168.015 177.306 160.158C177.306 152.301 170.936 145.932 163.079 145.932C155.222 145.932 148.853 152.301 148.853 160.158C148.853 168.015 155.222 174.385 163.079 174.385Z" fill="#5ECA29"/>
<path d="M101.576 282.176L101.576 391.766H138.709H210.692V364.05C210.692 360.999 208.218 358.525 205.167 358.525H144.234C141.182 358.525 138.709 356.052 138.709 353.001V333.892C138.709 330.84 141.182 328.367 144.234 328.367L188.467 328.367C202.716 353.252 225.462 357.725 262.615 353.962C263.217 353.897 263.523 354.151 263.533 354.717C263.578 356.201 263.666 357.879 263.76 359.682C264.293 369.906 265.038 384.181 259.397 390.283C257.219 392.63 253.372 395.231 247.856 398.08C229.249 407.697 210.864 417.713 192.488 427.725C184.797 431.914 177.108 436.103 169.405 440.262C161.259 444.653 153.442 444.948 145.954 441.144C132.483 434.281 104.419 419.212 61.7644 395.936C49.3555 389.156 49.363 383.077 49.3784 370.635C49.3796 369.665 49.3808 368.658 49.3762 367.608C49.3319 357.201 49.3082 353.932 49.305 350.663C49.3019 347.396 49.3193 344.129 49.3573 333.736C49.3602 332.686 49.3588 331.672 49.3574 330.691C49.338 316.909 49.3277 309.651 61.584 301.16C74.1135 292.48 87.7815 285.752 101.576 282.176Z" fill="#5ECA29"/>
<path d="M138.709 281.131L138.709 290.482C138.709 293.533 141.182 296.007 144.234 296.007L166.792 296.007C158.173 288.287 148.667 283.501 138.709 281.131Z" fill="#5ECA29"/>
<path fill-rule="evenodd" clip-rule="evenodd" d="M131.033 235.689H101.576V391.766L101.576 282.176C108.792 280.193 126.32 277.207 138.709 281.131L138.709 274.455C138.709 271.404 141.182 268.93 144.234 268.93H203.923C206.974 268.93 209.447 266.456 209.447 263.405V235.689H138.709H131.033ZM144.234 296.007L166.792 296.007C168.119 298.118 169.743 300.808 171.511 303.735C177.554 313.743 185.269 326.52 188.467 328.367L197.699 328.367C200.75 328.367 203.224 325.893 203.224 322.842V301.532C203.224 298.48 200.75 296.007 197.699 296.007H144.234Z" fill="#5ECA29"/>
</svg>
